<svg xmlns="http://www.w3.org/2000/svg" xmlns:xlink="http://www.w3.org/1999/xlink" width="500" zoomAndPan="magnify" viewBox="0 0 375 374.999991" height="500" preserveAspectRatio="xMidYMid meet" version="1.0"><defs><g/></defs><g fill="#ff3131" fill-opacity="1"><g transform="translate(75.472831, 199.881656)"><g><path d="M 9.9375 -58.421875 C 14.550781 -58.960938 18.019531 -58.28125 20.34375 -56.375 C 22.675781 -54.46875 24.101562 -51.335938 24.625 -46.984375 L 24.859375 -44.953125 C 25.203125 -42.054688 25.023438 -39.613281 24.328125 -37.625 C 23.640625 -35.644531 22.351562 -34.078125 20.46875 -32.921875 C 23.007812 -32.296875 24.894531 -31.003906 26.125 -29.046875 C 27.363281 -27.097656 28.160156 -24.617188 28.515625 -21.609375 L 29.0625 -17.015625 C 29.570312 -12.660156 28.832031 -9.207031 26.84375 -6.65625 C 24.851562 -4.101562 21.628906 -2.5625 17.171875 -2.03125 L 3.234375 -0.375 L -3.453125 -56.828125 Z M 9.109375 -26.84375 L 11.15625 -9.5 L 16.21875 -10.09375 C 17.71875 -10.269531 18.8125 -10.804688 19.5 -11.703125 C 20.1875 -12.609375 20.40625 -14.109375 20.15625 -16.203125 L 19.578125 -21.125 C 19.265625 -23.757812 18.609375 -25.507812 17.609375 -26.375 C 16.609375 -27.238281 15.085938 -27.550781 13.046875 -27.3125 Z M 6.390625 -49.8125 L 8.15625 -34.90625 L 11.609375 -35.3125 C 13.273438 -35.507812 14.523438 -36.09375 15.359375 -37.0625 C 16.203125 -38.03125 16.488281 -39.640625 16.21875 -41.890625 L 15.859375 -45.046875 C 15.609375 -47.097656 15.066406 -48.535156 14.234375 -49.359375 C 13.410156 -50.179688 12.21875 -50.5 10.65625 -50.3125 Z M 6.390625 -49.8125 "/></g></g></g><g fill="#ff3131" fill-opacity="1"><g transform="translate(109.128426, 195.923958)"><g><path d="M 10.390625 -13.9375 C 10.546875 -11.882812 11.070312 -10.472656 11.96875 -9.703125 C 12.875 -8.929688 14.03125 -8.597656 15.4375 -8.703125 C 16.832031 -8.816406 17.914062 -9.328125 18.6875 -10.234375 C 19.457031 -11.140625 19.765625 -12.617188 19.609375 -14.671875 L 17.171875 -45.265625 C 17.015625 -47.328125 16.484375 -48.738281 15.578125 -49.5 C 14.671875 -50.269531 13.519531 -50.597656 12.125 -50.484375 C 10.71875 -50.378906 9.628906 -49.875 8.859375 -48.96875 C 8.097656 -48.070312 7.796875 -46.59375 7.953125 -44.53125 Z M -0.921875 -43.265625 C -1.285156 -47.859375 -0.40625 -51.46875 1.71875 -54.09375 C 3.851562 -56.726562 7.109375 -58.21875 11.484375 -58.5625 C 15.847656 -58.914062 19.285156 -57.957031 21.796875 -55.6875 C 24.316406 -53.425781 25.757812 -50 26.125 -45.40625 L 28.46875 -15.9375 C 28.832031 -11.351562 27.945312 -7.738281 25.8125 -5.09375 C 23.6875 -2.457031 20.441406 -0.960938 16.078125 -0.609375 C 11.703125 -0.265625 8.253906 -1.226562 5.734375 -3.5 C 3.222656 -5.78125 1.785156 -9.210938 1.421875 -13.796875 Z M -0.921875 -43.265625 "/></g></g></g><g fill="#ff3131" fill-opacity="1"><g transform="translate(142.109839, 193.321457)"><g><path d="M 10.90625 -13.53125 C 10.988281 -11.46875 11.460938 -10.035156 12.328125 -9.234375 C 13.203125 -8.441406 14.34375 -8.070312 15.75 -8.125 C 17.15625 -8.1875 18.257812 -8.648438 19.0625 -9.515625 C 19.875 -10.390625 20.238281 -11.859375 20.15625 -13.921875 L 18.890625 -44.59375 C 18.804688 -46.644531 18.328125 -48.070312 17.453125 -48.875 C 16.578125 -49.675781 15.4375 -50.046875 14.03125 -49.984375 C 12.625 -49.929688 11.519531 -49.46875 10.71875 -48.59375 C 9.914062 -47.71875 9.554688 -46.253906 9.640625 -44.203125 Z M 0.734375 -43.28125 C 0.546875 -47.875 1.5625 -51.445312 3.78125 -54 C 6.007812 -56.550781 9.316406 -57.914062 13.703125 -58.09375 C 18.085938 -58.28125 21.488281 -57.191406 23.90625 -54.828125 C 26.332031 -52.460938 27.640625 -48.984375 27.828125 -44.390625 L 29.046875 -14.84375 C 29.234375 -10.25 28.21875 -6.671875 26 -4.109375 C 23.78125 -1.554688 20.476562 -0.1875 16.09375 0 C 11.707031 0.175781 8.300781 -0.914062 5.875 -3.28125 C 3.445312 -5.65625 2.140625 -9.140625 1.953125 -13.734375 Z M 0.734375 -43.28125 "/></g></g></g><g fill="#ff3131" fill-opacity="1"><g transform="translate(175.214269, 192.015204)"><g><path d="M 2.921875 -56.859375 L 11.859375 -56.90625 L 12.140625 -8.1875 L 26.828125 -8.28125 L 26.875 -0.15625 L 3.25 -0.015625 Z M 2.921875 -56.859375 "/></g></g></g><g fill="#ff3131" fill-opacity="1"><g transform="translate(203.759828, 191.865253)"><g><path d="M 13.046875 -31.25 L 24.5625 -30.921875 L 24.34375 -22.796875 L 12.828125 -23.125 L 12.1875 0.328125 L 3.25 0.09375 L 4.8125 -56.734375 L 28.421875 -56.09375 L 28.1875 -47.96875 L 13.515625 -48.375 Z M 13.046875 -31.25 "/></g></g></g><g fill="#ff3131" fill-opacity="1"><g transform="translate(232.700267, 192.676926)"><g><path d="M 6.6875 -56.53125 L 15.609375 -56 L 12.65625 -7.375 L 27.3125 -6.484375 L 26.828125 1.625 L 3.25 0.203125 Z M 6.6875 -56.53125 "/></g></g></g><g fill="#ff3131" fill-opacity="1"><g transform="translate(261.314683, 194.502113)"><g><path d="M 8.140625 -56.34375 L 17.046875 -55.578125 L 12.140625 1.046875 L 3.234375 0.28125 Z M 8.140625 -56.34375 "/></g></g></g><g fill="#ff3131" fill-opacity="1"><g transform="translate(277.767003, 195.798019)"><g><path d="M 39.453125 -52.609375 L 26.96875 -26.265625 L 33.46875 3.921875 L 24.109375 2.828125 L 19.484375 -20.375 L 9.515625 1.109375 L 1.203125 0.140625 L 14.53125 -27.734375 L 8.484375 -56.234375 L 17.671875 -55.15625 L 21.90625 -33.5625 L 31.21875 -53.5625 Z M 39.453125 -52.609375 "/></g></g></g></svg>