<svg xmlns="http://www.w3.org/2000/svg" xmlns:xlink="http://www.w3.org/1999/xlink" width="37.07" zoomAndPan="magnify" viewBox="0 0 375 374.999991" height="36" preserveAspectRatio="xMidYMid meet" version="1.0"><defs><filter x="0%" y="0%" width="100%" height="100%" id="669bd05913"><feColorMatrix values="0 0 0 0 1 0 0 0 0 1 0 0 0 0 1 0 0 0 1 0" color-interpolation-filters="sRGB"/></filter><g/><mask id="9a1fd99b64"><g filter="url(#669bd05913)"><rect x="-37.5" width="450" fill="#000000" y="-37.499999" height="449.999989" fill-opacity="0.61"/></g></mask><clipPath id="1a8f630935"><rect x="0" width="38" y="0" height="84"/></clipPath></defs><g mask="url(#9a1fd99b64)"><g transform="matrix(1, 0, 0, 1, 177, 130)"><g clip-path="url(#1a8f630935)"><g fill="#ff3131" fill-opacity="1"><g transform="translate(1.908247, 61.92215)"><g><path d="M 16.734375 -56.84375 C 21.390625 -56.84375 24.757812 -55.757812 26.84375 -53.59375 C 28.925781 -51.425781 29.96875 -48.148438 29.96875 -43.765625 L 29.96875 -41.734375 C 29.96875 -38.816406 29.503906 -36.410156 28.578125 -34.515625 C 27.660156 -32.617188 26.203125 -31.207031 24.203125 -30.28125 C 26.640625 -29.363281 28.359375 -27.863281 29.359375 -25.78125 C 30.359375 -23.695312 30.859375 -21.140625 30.859375 -18.109375 L 30.859375 -13.484375 C 30.859375 -9.097656 29.71875 -5.753906 27.4375 -3.453125 C 25.164062 -1.148438 21.785156 0 17.296875 0 L 3.25 0 L 3.25 -56.84375 Z M 12.1875 -25.578125 L 12.1875 -8.125 L 17.296875 -8.125 C 18.804688 -8.125 19.953125 -8.53125 20.734375 -9.34375 C 21.523438 -10.15625 21.921875 -11.613281 21.921875 -13.71875 L 21.921875 -18.671875 C 21.921875 -21.328125 21.472656 -23.140625 20.578125 -24.109375 C 19.691406 -25.085938 18.21875 -25.578125 16.15625 -25.578125 Z M 12.1875 -48.71875 L 12.1875 -33.703125 L 15.671875 -33.703125 C 17.347656 -33.703125 18.660156 -34.132812 19.609375 -35 C 20.554688 -35.863281 21.03125 -37.429688 21.03125 -39.703125 L 21.03125 -42.875 C 21.03125 -44.9375 20.664062 -46.425781 19.9375 -47.34375 C 19.207031 -48.257812 18.054688 -48.71875 16.484375 -48.71875 Z M 12.1875 -48.71875 "/></g></g></g></g></g></g></svg>